# xmcd CD database file
#
# Track frame offsets:
#	150
#	18592
#	38167
#	57060
#
# Disc length: 1005 seconds
#
# Revision: 0
# Processed by: cddbd v1.5.1PL0 Copyright (c) Steve Scherf et al.
# Submitted via: CDex 1.51
#
DISCID=2903eb04
DTITLE=Kaya - ハレルヤ
DYEAR=2002
DGENRE=Vocal
TTITLE0=ハレルヤ
TTITLE1=逃げ出したい
TTITLE2=形のない街を目指して　-アコースティックバージョン-
TTITLE3=ハレルヤ -Vocal less-
EXTD=YEAR: 2002
EXTT0=
EXTT1=
EXTT2=
EXTT3=
PLAYORDER=
